<svg width="390" height="282" viewBox="0 0 390 282" fill="none" xmlns="http://www.w3.org/2000/svg">
<rect width="390" height="282" fill="#F2F8FF"/>
<path d="M226.111 118.333C228.569 118.333 230.556 120.319 230.556 122.778V158.333C230.556 159.181 230.319 159.972 229.917 160.639L207.361 132.444C205.583 130.222 202.194 130.222 200.417 132.444L188.944 146.792L185.153 141.583C183.444 139.222 179.958 139.125 178.125 141.389L161.292 161.944C160.181 161.139 159.444 159.819 159.444 158.333V122.778C159.444 120.319 161.431 118.333 163.889 118.333H226.111ZM225.931 162.778H181.847L190.597 151.833L203.889 135.222L225.931 162.778ZM177.236 167.222H226.111C231.014 167.222 235 163.236 235 158.333V122.778C235 117.875 231.014 113.889 226.111 113.889H163.889C158.986 113.889 155 117.875 155 122.778V158.333C155 163.236 158.986 167.222 163.889 167.222H177.208C177.222 167.222 177.236 167.222 177.25 167.222H177.236ZM176.153 162.778H166.361L181.569 144.194L186.069 150.389L176.153 162.778ZM175 127.222C175.589 127.222 176.155 127.456 176.571 127.873C176.988 128.29 177.222 128.855 177.222 129.444C177.222 130.034 176.988 130.599 176.571 131.016C176.155 131.433 175.589 131.667 175 131.667C174.411 131.667 173.845 131.433 173.429 131.016C173.012 130.599 172.778 130.034 172.778 129.444C172.778 128.855 173.012 128.29 173.429 127.873C173.845 127.456 174.411 127.222 175 127.222ZM175 136.111C175.875 136.111 176.742 135.939 177.551 135.604C178.36 135.269 179.095 134.778 179.714 134.159C180.333 133.539 180.824 132.805 181.159 131.996C181.494 131.187 181.667 130.32 181.667 129.444C181.667 128.569 181.494 127.702 181.159 126.893C180.824 126.084 180.333 125.349 179.714 124.73C179.095 124.111 178.36 123.62 177.551 123.285C176.742 122.95 175.875 122.778 175 122.778C174.125 122.778 173.258 122.95 172.449 123.285C171.64 123.62 170.905 124.111 170.286 124.73C169.667 125.349 169.176 126.084 168.841 126.893C168.506 127.702 168.333 128.569 168.333 129.444C168.333 130.32 168.506 131.187 168.841 131.996C169.176 132.805 169.667 133.539 170.286 134.159C170.905 134.778 171.64 135.269 172.449 135.604C173.258 135.939 174.125 136.111 175 136.111Z" fill="#015292"/>
</svg>
