<svg width="1440" height="400" viewBox="0 0 1440 400" fill="none" xmlns="http://www.w3.org/2000/svg">
<rect width="1440" height="400" fill="#F2F8FF"/>
<path d="M751.111 177.333C753.569 177.333 755.556 179.319 755.556 181.778V217.333C755.556 218.18 755.319 218.972 754.917 219.639L732.361 191.444C730.583 189.222 727.194 189.222 725.417 191.444L713.944 205.791L710.153 200.583C708.444 198.222 704.958 198.125 703.125 200.389L686.292 220.944C685.181 220.139 684.444 218.819 684.444 217.333V181.778C684.444 179.319 686.431 177.333 688.889 177.333H751.111ZM750.931 221.778H706.847L715.597 210.833L728.889 194.222L750.931 221.778ZM702.236 226.222H751.111C756.014 226.222 760 222.236 760 217.333V181.778C760 176.875 756.014 172.889 751.111 172.889H688.889C683.986 172.889 680 176.875 680 181.778V217.333C680 222.236 683.986 226.222 688.889 226.222H702.208C702.222 226.222 702.236 226.222 702.25 226.222H702.236ZM701.153 221.778H691.361L706.569 203.194L711.069 209.389L701.153 221.778ZM700 186.222C700.589 186.222 701.155 186.456 701.571 186.873C701.988 187.29 702.222 187.855 702.222 188.444C702.222 189.034 701.988 189.599 701.571 190.016C701.155 190.432 700.589 190.666 700 190.666C699.411 190.666 698.845 190.432 698.429 190.016C698.012 189.599 697.778 189.034 697.778 188.444C697.778 187.855 698.012 187.29 698.429 186.873C698.845 186.456 699.411 186.222 700 186.222ZM700 195.111C700.875 195.111 701.742 194.938 702.551 194.603C703.36 194.268 704.095 193.777 704.714 193.158C705.333 192.539 705.824 191.804 706.159 190.995C706.494 190.187 706.667 189.32 706.667 188.444C706.667 187.569 706.494 186.702 706.159 185.893C705.824 185.084 705.333 184.349 704.714 183.73C704.095 183.111 703.36 182.62 702.551 182.285C701.742 181.95 700.875 181.778 700 181.778C699.125 181.778 698.258 181.95 697.449 182.285C696.64 182.62 695.905 183.111 695.286 183.73C694.667 184.349 694.176 185.084 693.841 185.893C693.506 186.702 693.333 187.569 693.333 188.444C693.333 189.32 693.506 190.187 693.841 190.995C694.176 191.804 694.667 192.539 695.286 193.158C695.905 193.777 696.64 194.268 697.449 194.603C698.258 194.938 699.125 195.111 700 195.111Z" fill="#015292"/>
</svg>
