<svg width="795" height="475" viewBox="0 0 795 475" fill="none" xmlns="http://www.w3.org/2000/svg">
<rect width="795" height="475" rx="8" fill="#F2F8FF"/>
<path d="M429.111 215.333C431.569 215.333 433.556 217.319 433.556 219.778V255.333C433.556 256.181 433.319 256.972 432.917 257.639L410.361 229.444C408.583 227.222 405.194 227.222 403.417 229.444L391.944 243.792L388.153 238.583C386.444 236.222 382.958 236.125 381.125 238.389L364.292 258.944C363.181 258.139 362.444 256.819 362.444 255.333V219.778C362.444 217.319 364.431 215.333 366.889 215.333H429.111ZM428.931 259.778H384.847L393.597 248.833L406.889 232.222L428.931 259.778ZM380.236 264.222H429.111C434.014 264.222 438 260.236 438 255.333V219.778C438 214.875 434.014 210.889 429.111 210.889H366.889C361.986 210.889 358 214.875 358 219.778V255.333C358 260.236 361.986 264.222 366.889 264.222H380.208C380.222 264.222 380.236 264.222 380.25 264.222H380.236ZM379.153 259.778H369.361L384.569 241.194L389.069 247.389L379.153 259.778ZM378 224.222C378.589 224.222 379.155 224.456 379.571 224.873C379.988 225.29 380.222 225.855 380.222 226.444C380.222 227.034 379.988 227.599 379.571 228.016C379.155 228.433 378.589 228.667 378 228.667C377.411 228.667 376.845 228.433 376.429 228.016C376.012 227.599 375.778 227.034 375.778 226.444C375.778 225.855 376.012 225.29 376.429 224.873C376.845 224.456 377.411 224.222 378 224.222ZM378 233.111C378.875 233.111 379.742 232.939 380.551 232.604C381.36 232.269 382.095 231.778 382.714 231.159C383.333 230.539 383.824 229.805 384.159 228.996C384.494 228.187 384.667 227.32 384.667 226.444C384.667 225.569 384.494 224.702 384.159 223.893C383.824 223.084 383.333 222.349 382.714 221.73C382.095 221.111 381.36 220.62 380.551 220.285C379.742 219.95 378.875 219.778 378 219.778C377.125 219.778 376.258 219.95 375.449 220.285C374.64 220.62 373.905 221.111 373.286 221.73C372.667 222.349 372.176 223.084 371.841 223.893C371.506 224.702 371.333 225.569 371.333 226.444C371.333 227.32 371.506 228.187 371.841 228.996C372.176 229.805 372.667 230.539 373.286 231.159C373.905 231.778 374.64 232.269 375.449 232.604C376.258 232.939 377.125 233.111 378 233.111Z" fill="#015292"/>
</svg>
