<svg width="390" height="150" viewBox="0 0 390 150" fill="none" xmlns="http://www.w3.org/2000/svg">
<rect x="0.5" width="389" height="150" rx="8" fill="#F2F8FF"/>
<g clip-path="url(#clip0_2626_277)">
<path d="M226.611 52.3334C229.069 52.3334 231.056 54.3195 231.056 56.7778V92.3334C231.056 93.1806 230.819 93.9723 230.417 94.6389L207.861 66.4445C206.083 64.2223 202.694 64.2223 200.917 66.4445L189.444 80.7917L185.653 75.5834C183.944 73.2222 180.458 73.125 178.625 75.3889L161.792 95.9445C160.681 95.1389 159.944 93.8195 159.944 92.3334V56.7778C159.944 54.3195 161.931 52.3334 164.389 52.3334H226.611ZM226.431 96.7778H182.347L191.097 85.8334L204.389 69.2223L226.431 96.7778ZM177.736 101.222H226.611C231.514 101.222 235.5 97.2361 235.5 92.3334V56.7778C235.5 51.875 231.514 47.8889 226.611 47.8889H164.389C159.486 47.8889 155.5 51.875 155.5 56.7778V92.3334C155.5 97.2361 159.486 101.222 164.389 101.222H177.708C177.722 101.222 177.736 101.222 177.75 101.222H177.736ZM176.653 96.7778H166.861L182.069 78.1945L186.569 84.3889L176.653 96.7778ZM175.5 61.2222C176.089 61.2222 176.655 61.4564 177.071 61.8731C177.488 62.2899 177.722 62.8551 177.722 63.4445C177.722 64.0338 177.488 64.5991 177.071 65.0158C176.655 65.4326 176.089 65.6667 175.5 65.6667C174.911 65.6667 174.345 65.4326 173.929 65.0158C173.512 64.5991 173.278 64.0338 173.278 63.4445C173.278 62.8551 173.512 62.2899 173.929 61.8731C174.345 61.4564 174.911 61.2222 175.5 61.2222ZM175.5 70.1111C176.375 70.1111 177.242 69.9387 178.051 69.6037C178.86 69.2686 179.595 68.7776 180.214 68.1585C180.833 67.5395 181.324 66.8045 181.659 65.9957C181.994 65.1869 182.167 64.32 182.167 63.4445C182.167 62.569 181.994 61.7021 181.659 60.8932C181.324 60.0844 180.833 59.3495 180.214 58.7304C179.595 58.1114 178.86 57.6203 178.051 57.2853C177.242 56.9502 176.375 56.7778 175.5 56.7778C174.625 56.7778 173.758 56.9502 172.949 57.2853C172.14 57.6203 171.405 58.1114 170.786 58.7304C170.167 59.3495 169.676 60.0844 169.341 60.8932C169.006 61.7021 168.833 62.569 168.833 63.4445C168.833 64.32 169.006 65.1869 169.341 65.9957C169.676 66.8045 170.167 67.5395 170.786 68.1585C171.405 68.7776 172.14 69.2686 172.949 69.6037C173.758 69.9387 174.625 70.1111 175.5 70.1111Z" fill="#015292"/>
</g>
<defs>
<clipPath id="clip0_2626_277">
<rect width="80" height="71.1111" fill="white" transform="translate(155.5 39)"/>
</clipPath>
</defs>
</svg>
